<svg xmlns="http://www.w3.org/2000/svg" width="287.61" height="32.384" viewBox="0 0 287.61 32.384">
  <defs>
    <style>
      .cls-1 {
      font-size: 10px;
      font-family: Aileron-Regular, Aileron;
      }
    </style>
  </defs>
  <g id="Group_68" data-name="Group 68" transform="translate(-122.08 -51.232)">
    <text id="DOUANES_CONGOLAISES" data-name="DOUANES
CONGOLAISES" class="cls-1" transform="translate(345 55)">
      <tspan x="-82.032" y="5">GUICHET UNIQUE</tspan>
      <tspan x="-82.032" y="16">DU COMMERCE EXTÉRIEUR</tspan>
      <tspan x="-82.032" y="27">DE GUINÉE</tspan>
    </text>
    <path id="Path_209" data-name="Path 209" d="M25.256,13.628v-1.32c0-6.072-3.52-9.68-11.088-9.68-7.524,0-11.088,3.608-11.088,9.68V24.76c0,6.072,3.564,9.724,11.132,9.724,7.524,0,11.044-3.652,11.044-9.724v-6.6H13.464V20.1h9.812v4.356c0,5.28-2.684,8.1-9.108,8.1S5.1,29.732,5.1,24.452V12.616c0-5.324,2.64-8.052,9.108-8.052,6.38,0,9.064,2.728,9.064,8.052v1.012ZM42.2,34.484c7.3,0,10.692-3.608,10.692-9.68V3.112H50.864V24.5c0,5.324-2.464,8.052-8.668,8.052-6.248,0-8.712-2.728-8.712-8.052V3.112H31.46V24.8C31.46,30.876,34.892,34.484,42.2,34.484Zm28.028-.044c7.524,0,11.044-3.608,11.044-9.68V23.176H79.244v1.276c0,5.28-2.6,8.052-9.064,8.052s-9.064-2.772-9.064-8.052V12.616c0-5.324,2.6-8.052,9.108-8.052,6.424,0,9.02,2.728,9.02,8.052V13.8h2.024v-1.5c0-6.072-3.52-9.68-11.088-9.68-7.524,0-11.088,3.608-11.088,9.68V24.76C59.092,30.832,62.656,34.44,70.224,34.44ZM106.656,5.048V3.112H88.484V34h18.172V32.064H90.508V19.612h14.036V17.676H90.508V5.048Z" transform="translate(119 49)"/>
    <path id="Path_208" data-name="Path 208" d="M26.576,13.936v-1.76c0-6.028-4.444-9.944-12.232-9.944C6.6,2.232,2.156,6.148,2.156,12.176v12.5c0,6.028,4.488,9.944,12.232,9.944S26.576,30.7,26.576,24.672v-7.3H14.168v5.016h7v1.98c0,3.256-2.464,5.236-6.82,5.236-4.312,0-6.776-1.98-6.776-5.236V12.484c0-3.256,2.464-5.236,6.82-5.236,4.312,0,6.776,1.98,6.776,5.236v1.452Z" transform="translate(229 49)" fill="#6cb269"/>
  </g>
</svg>
