<svg width="149" height="32" viewBox="0 0 149 32" fill="none" xmlns="http://www.w3.org/2000/svg">
<path d="M121.543 18.4246C71.5542 9.29579 133.869 52.4395 123.421 19.2386L121.543 18.4246Z" fill="url(#paint0_linear_2530_26266)"/>
<path d="M121.918 18.6751C98.8935 -14.277 134.473 3.20653 123.356 19.2388L121.918 18.6751Z" fill="url(#paint1_linear_2530_26266)"/>
<path d="M129.049 18.7856C152.073 -14.1666 116.493 3.31699 127.61 19.3477L129.049 18.7856Z" fill="url(#paint2_linear_2530_26266)"/>
<path d="M129.326 18.4246C179.318 9.29579 117.001 52.4395 127.45 19.2386L129.326 18.4246Z" fill="url(#paint3_linear_2530_26266)"/>
<path d="M25.2402 13.0341C25.2402 13.9449 24.3335 14.401 22.5185 14.401H18.1894C17.0399 14.401 16.2223 14.1353 15.7367 13.6024L12.6769 10.0915L9.46352 13.7191C9.00403 14.2582 8.18646 14.5269 7.01082 14.5269H2.68169C0.892872 14.5269 0 14.0631 0 13.1355V1.78745C0 1.34821 0.268937 1.00726 0.803739 0.763066C1.34008 0.518874 1.96709 0.397545 2.68169 0.397545C3.3963 0.397545 4.05404 0.520409 4.57808 0.763066C5.10213 1.00726 5.36338 1.34821 5.36338 1.78745V11.6688L10.2273 6.17984C10.8405 5.48105 11.6581 5.13089 12.68 5.13089C13.702 5.13089 14.518 5.48105 15.1312 6.17984L19.8752 11.5705V1.65844C19.8752 1.23456 20.1565 0.893609 20.7189 0.632523C21.2046 0.405224 21.8177 0.290039 22.5585 0.290039C23.2992 0.290039 23.9001 0.412903 24.4364 0.65556C24.9728 0.899752 25.2417 1.23302 25.2417 1.6569V13.0326L25.2402 13.0341Z" fill="white"/>
<path d="M44.9492 14.4592H37.4405C34.9386 14.4592 32.7026 14.1505 30.737 13.5315C28.5917 12.865 27.4422 12.028 27.29 11.019V3.84676C27.29 2.98518 28.0569 2.22803 29.5891 1.57685C31.4793 0.762874 34.0842 0.357422 37.4036 0.357422H44.9508C45.7945 0.357422 46.4691 0.504859 46.9809 0.798197C47.4142 1.05928 47.6325 1.36798 47.6325 1.72582C47.6325 2.08366 47.4142 2.41847 46.9809 2.67802C46.4691 2.95446 45.7929 3.09269 44.9508 3.09269H37.4805C35.999 3.09269 34.8249 3.19866 33.9551 3.40906C33.0868 3.61947 32.6534 3.87134 32.6534 4.16314V10.6534C32.8071 10.9944 33.4064 11.2616 34.453 11.4567C35.3474 11.6348 36.3432 11.7239 37.442 11.7239H44.9508C45.7945 11.7239 46.4691 11.8637 46.9809 12.1401C47.4142 12.4012 47.6325 12.7176 47.6325 13.0923C47.6325 13.467 47.4142 13.7773 46.9809 14.0215C46.4691 14.3148 45.7929 14.4607 44.9508 14.4607L44.9492 14.4592ZM40.551 7.34225H35.5764C34.7342 7.34225 34.0765 7.20403 33.6047 6.92758C33.1329 6.65114 32.8962 6.33323 32.8962 5.97539C32.8962 5.61754 33.1314 5.27967 33.6047 5.0109C34.0765 4.74214 34.7342 4.60699 35.5764 4.60699H40.551C41.4177 4.60699 42.0877 4.74214 42.5611 5.0109C43.0329 5.27967 43.2695 5.60065 43.2695 5.97539C43.2695 6.35012 43.0329 6.65114 42.5611 6.92758C42.0893 7.20403 41.4192 7.34225 40.551 7.34225Z" fill="white"/>
<path d="M69.8821 10.6504C69.9066 11.4797 69.1275 12.2783 67.5446 13.0431C65.5775 13.9877 62.9865 14.4592 59.7669 14.4592H52.2198C50.431 14.4592 49.5381 14.0046 49.5381 13.0938V1.72429C49.5381 0.813555 50.434 0.357422 52.2244 0.357422H59.747C62.2289 0.357422 64.4418 0.633866 66.3874 1.18522C68.5112 1.78572 69.6761 2.55515 69.8805 3.49507C69.8759 3.46281 69.8759 3.42903 69.8805 3.39677C69.9574 3.57646 69.9942 3.7884 69.9942 4.0326C69.9942 4.83121 69.3426 5.5469 68.041 6.18118C69.1383 6.73561 69.7514 7.36221 69.8805 8.06254V10.6504H69.8821ZM64.5187 3.96656L64.4803 3.82066C64.4295 3.44899 63.8563 3.22169 62.7637 3.1403C62.4333 3.10804 61.4159 3.09115 59.7116 3.09115H54.9045V11.7208H59.6163C61.0717 11.7208 62.2719 11.5427 63.2186 11.1848C64.0868 10.8592 64.5202 10.4691 64.5202 10.0145V8.47721C64.4434 7.97346 63.7933 7.66477 62.567 7.55112C62.0552 7.46972 60.5107 7.42825 57.932 7.42825C57.0883 7.42825 56.4121 7.28235 55.9019 6.98902C55.4424 6.74482 55.2119 6.43459 55.2119 6.05985C55.2119 5.68512 55.447 5.38871 55.9173 5.11994C56.3875 4.85118 57.0422 4.70988 57.8828 4.69299C59.1799 4.70988 60.7305 4.70988 62.5378 4.69299C64.0392 4.56398 64.7 4.32133 64.5217 3.96502L64.5187 3.96656Z" fill="white"/>
<path d="M93.1736 10.6504C93.1982 11.4797 92.419 12.2783 90.8361 13.0431C88.869 13.9877 86.278 14.4592 83.0584 14.4592H75.5113C73.7225 14.4592 72.8296 14.0046 72.8296 13.0938V1.72429C72.8296 0.813555 73.7255 0.357422 75.5159 0.357422H83.0385C85.5204 0.357422 87.7333 0.633866 89.6789 1.18522C91.8027 1.78572 92.9676 2.55515 93.172 3.49507C93.1674 3.46281 93.1674 3.42903 93.172 3.39677C93.2489 3.57646 93.2857 3.7884 93.2857 4.0326C93.2857 4.83121 92.6341 5.5469 91.3325 6.18118C92.4298 6.73561 93.0429 7.36221 93.172 8.06254V10.6504H93.1736ZM87.8102 3.96656L87.7718 3.82066C87.721 3.44899 87.1494 3.22169 86.0552 3.1403C85.7248 3.10804 84.7074 3.09115 83.0031 3.09115H78.196V11.7208H82.9078C84.3632 11.7208 85.5634 11.5427 86.5085 11.1848C87.3768 10.8592 87.8102 10.4691 87.8102 10.0145V8.47721C87.7333 7.97346 87.0833 7.66477 85.8569 7.55112C85.3452 7.46972 83.8007 7.42825 81.2204 7.42825C80.3767 7.42825 79.7006 7.28235 79.1903 6.98902C78.7308 6.74482 78.5003 6.43459 78.5003 6.05985C78.5003 5.68512 78.7355 5.38871 79.2057 5.11994C79.676 4.85118 80.3306 4.70988 81.1713 4.69299C82.4683 4.70988 84.0189 4.70988 85.8262 4.69299C87.3276 4.56398 87.9884 4.32133 87.8102 3.96502V3.96656Z" fill="white"/>
<path d="M9.71996 21.8665H5.65362C4.84681 21.8665 4.20751 21.9571 3.73418 22.1368C3.26239 22.318 3.02572 22.533 3.02572 22.7818V30.4209C3.02572 30.7818 2.8828 31.0659 2.59696 31.2748C2.31112 31.4837 1.96534 31.5866 1.5627 31.5866C1.16006 31.5866 0.831191 31.4821 0.537665 31.2733C0.244139 31.0644 0.0981445 30.7803 0.0981445 30.4178V22.513C0.0981445 21.7897 0.51615 21.1431 1.35062 20.5733C2.38027 19.8791 3.80641 19.5305 5.6275 19.5305H9.71688C10.1764 19.5305 10.5452 19.6549 10.8234 19.9053C11.06 20.1279 11.1784 20.3921 11.1784 20.6977C11.1784 21.0034 11.06 21.289 10.8234 21.5117C10.5452 21.7482 10.1779 21.8665 9.71842 21.8665H9.71996ZM7.32104 25.514H4.61015C4.15065 25.514 3.79258 25.3957 3.53593 25.1592C3.27929 24.9227 3.1502 24.6524 3.1502 24.3453C3.1502 24.0381 3.27929 23.7509 3.53593 23.5221C3.79258 23.2932 4.15218 23.178 4.61015 23.178H7.32104C7.79437 23.178 8.15858 23.2932 8.41676 23.5221C8.67341 23.7509 8.8025 24.0258 8.8025 24.3453C8.8025 24.6647 8.67341 24.9227 8.41676 25.1592C8.16012 25.3957 7.79437 25.514 7.32104 25.514Z" fill="white"/>
<path d="M23.2718 28.6409C23.2718 29.3765 22.8476 30.0308 21.9978 30.6006C20.982 31.2671 19.5558 31.6142 17.7194 31.6418C16.3547 31.6557 15.1376 31.3992 14.0664 30.8709C12.8969 30.3011 12.2715 29.5716 12.1885 28.6823V22.4516C12.1885 21.6745 12.6065 21.0079 13.4425 20.452C14.446 19.7993 15.8614 19.4583 17.6886 19.4307C19.0548 19.4168 20.3058 19.6948 21.443 20.2646C22.5787 20.8344 23.1888 21.5501 23.2733 22.4117V28.6424L23.2718 28.6409ZM20.3457 28.369V22.8064C20.3181 22.4593 20.0123 22.189 19.4283 21.9939C18.9288 21.8403 18.3587 21.7651 17.7194 21.7651C15.9828 21.7927 15.1145 22.1122 15.1145 22.7234V28.369C15.1975 28.6747 15.5172 28.9189 16.0735 29.0985C16.5591 29.2521 17.0939 29.3274 17.6779 29.3274C18.4985 29.3136 19.147 29.2199 19.6265 29.0463C20.106 28.8728 20.3457 28.647 20.3457 28.369Z" fill="white"/>
<path d="M33.2023 25.6001C33.3006 25.7813 33.3483 25.961 33.3483 26.1422C33.3483 26.4617 33.1946 26.7289 32.8888 26.9454C32.5829 27.1605 32.2279 27.268 31.8253 27.268C31.2413 27.268 30.8095 27.0391 30.5313 26.5799L27.908 22.0984V30.4194C27.908 30.7803 27.7621 31.066 27.4685 31.2749C27.175 31.4837 26.8338 31.5882 26.4435 31.5882C26.0531 31.5882 25.7043 31.4914 25.44 31.2964C25.1326 31.0737 24.9805 30.7819 24.9805 30.4194V20.6993C24.9805 19.9207 25.4599 19.5306 26.4204 19.5306H28.7779C29.4033 19.5306 29.849 19.7594 30.1133 20.2186L33.2007 25.6001H33.2023ZM36.4003 30.4179C36.4003 30.7803 36.2543 31.0645 35.9608 31.2733C35.6673 31.4822 35.3261 31.5866 34.9358 31.5866C34.5454 31.5866 34.2043 31.4822 33.9107 31.2733C33.6172 31.0645 33.4712 30.7803 33.4712 30.4179V20.6978C33.4712 20.3369 33.6172 20.0512 33.9107 19.8424C34.2043 19.6335 34.5454 19.5291 34.9358 19.5291C35.3261 19.5291 35.6673 19.6335 35.9608 19.8424C36.2528 20.0512 36.4003 20.3369 36.4003 20.6978V30.4179Z" fill="white"/>
<path d="M47.4019 21.888H39.2016C38.7421 21.888 38.3841 21.7697 38.1274 21.5332C37.8708 21.2967 37.7417 21.0264 37.7417 20.7192C37.7417 20.4121 37.8708 20.1249 38.1274 19.896C38.3841 19.6672 38.7437 19.552 39.2016 19.552H47.4019C47.8614 19.552 48.2303 19.6703 48.5084 19.9068C48.7451 20.1295 48.8634 20.3998 48.8634 20.7207C48.8634 21.0417 48.7451 21.2905 48.5084 21.5132C48.2303 21.7636 47.8614 21.888 47.4019 21.888ZM44.688 31.6649C43.6983 31.6649 42.7946 31.4637 41.9725 31.0613C41.0827 30.6297 40.594 30.0876 40.511 29.4349V23.1811C40.511 22.8064 40.6647 22.5146 40.9705 22.3057C41.2348 22.1106 41.5698 22.0139 41.974 22.0139C42.3782 22.0139 42.7055 22.1153 42.999 22.3164C43.291 22.5176 43.4386 22.8064 43.4386 23.1811V28.8497C43.4939 28.9757 43.6583 29.0847 43.9288 29.183C44.1993 29.2798 44.4528 29.3289 44.6895 29.3289C45.149 29.3289 45.5055 29.4472 45.7637 29.6837C46.0204 29.9202 46.1495 30.1905 46.1495 30.4961C46.1495 30.8018 46.0204 31.0905 45.7637 31.3193C45.5055 31.5482 45.1475 31.6633 44.688 31.6633V31.6649Z" fill="white"/>
<path d="M61.2209 30.3978C61.2209 30.7726 61.078 31.0644 60.7922 31.2732C60.5063 31.4821 60.1682 31.5865 59.7779 31.5865C59.3875 31.5865 59.0249 31.4821 58.7329 31.2732C58.4394 31.0644 58.2934 30.7726 58.2934 30.3978V22.4961C58.2934 21.9816 57.4389 21.739 55.7315 21.7666C53.9827 21.7804 53.1082 21.9954 53.1082 22.4132V30.3994C53.1082 30.7741 52.9653 31.0659 52.6795 31.2748C52.3936 31.4836 52.0479 31.5881 51.6452 31.5881C51.2426 31.5881 50.9137 31.4836 50.6202 31.2748C50.3267 31.0659 50.1807 30.7741 50.1807 30.3994V22.4132C50.1807 21.7036 50.5971 21.0648 51.4285 20.495C52.4397 19.8131 53.8536 19.4598 55.6685 19.4322C57.0132 19.4045 58.2334 19.661 59.3276 20.2032C60.5063 20.7868 61.1364 21.5101 61.2194 22.3717V30.3994L61.2209 30.3978ZM56.5891 25.5355H54.6696C54.2101 25.5355 53.852 25.4172 53.5954 25.1807C53.3388 24.9442 53.2097 24.6739 53.2097 24.3667C53.2097 24.0596 53.3388 23.7724 53.5954 23.5435C53.852 23.3147 54.2117 23.1995 54.6696 23.1995H56.5891C57.0486 23.1995 57.4174 23.3178 57.6955 23.5543C57.9322 23.777 58.0505 24.0473 58.0505 24.3667C58.0505 24.6862 57.9322 24.9365 57.6955 25.1592C57.4174 25.4095 57.0486 25.5339 56.5891 25.5339V25.5355Z" fill="white"/>
<path d="M66.698 30.4163C66.698 30.8187 66.5474 31.135 66.2493 31.3654C65.9496 31.5942 65.6038 31.7094 65.215 31.7094C64.8262 31.7094 64.4697 31.5989 64.19 31.3762C63.9118 31.1535 63.772 30.834 63.772 30.4163V20.7192C63.772 20.3445 63.918 20.0527 64.2115 19.8438C64.505 19.635 64.8462 19.5305 65.2365 19.5305C65.6269 19.5305 65.9849 19.635 66.2708 19.8438C66.5566 20.0527 66.6996 20.3445 66.6996 20.7192V30.4163H66.698Z" fill="white"/>
<path d="M77.5109 25.6001C77.6092 25.7813 77.6569 25.961 77.6569 26.1422C77.6569 26.4617 77.5032 26.7289 77.1974 26.9454C76.8915 27.1605 76.5365 27.268 76.1339 27.268C75.5499 27.268 75.1181 27.0391 74.8399 26.5799L72.2166 22.0984V30.4194C72.2166 30.7803 72.0691 31.066 71.7771 31.2749C71.4836 31.4837 71.1424 31.5882 70.7521 31.5882C70.3617 31.5882 70.0129 31.4914 69.7486 31.2964C69.4412 31.0737 69.2891 30.7819 69.2891 30.4194V20.6993C69.2891 19.9207 69.7685 19.5306 70.729 19.5306H73.0865C73.7119 19.5306 74.1576 19.7594 74.4219 20.2186L77.5093 25.6001H77.5109ZM80.7089 30.4179C80.7089 30.7803 80.5614 31.0645 80.2694 31.2733C79.9759 31.4822 79.6347 31.5866 79.2444 31.5866C78.854 31.5866 78.5129 31.4822 78.2193 31.2733C77.9258 31.0645 77.7798 30.7803 77.7798 30.4179V20.6978C77.7798 20.3369 77.9258 20.0512 78.2193 19.8424C78.5129 19.6335 78.854 19.5291 79.2444 19.5291C79.6347 19.5291 79.9759 19.6335 80.2694 19.8424C80.5614 20.0512 80.7089 20.3369 80.7089 20.6978V30.4179Z" fill="white"/>
<path d="M91.837 31.5866H87.7476C86.3845 31.5866 85.1674 31.3224 84.0962 30.7941C82.9283 30.2243 82.3012 29.5071 82.2183 28.6455V22.513C82.2183 21.7759 82.6363 21.1293 83.4707 20.5733C84.5004 19.8791 85.9188 19.5305 87.7276 19.5305H91.8385C92.298 19.5305 92.6669 19.6549 92.945 19.9053C93.1817 20.1279 93.3 20.3921 93.3 20.6977C93.3 21.0034 93.1817 21.289 92.945 21.5117C92.6669 21.7482 92.2996 21.8665 91.8401 21.8665H87.7737C86.9669 21.8665 86.3276 21.9571 85.8558 22.1368C85.384 22.318 85.1474 22.533 85.1474 22.7818V28.3353C85.2304 28.6271 85.5577 28.8559 86.1278 29.0218C86.615 29.1738 87.156 29.2506 87.7538 29.2506H91.8401C92.2996 29.2506 92.6684 29.3689 92.945 29.6054C93.1817 29.8281 93.3 30.0984 93.3 30.4194C93.3 30.7403 93.1817 31.003 92.945 31.2118C92.6669 31.4622 92.298 31.5866 91.8385 31.5866H91.837ZM89.4396 25.514H86.7272C86.2677 25.514 85.9112 25.3957 85.653 25.1592C85.3963 24.9227 85.2672 24.6524 85.2672 24.3453C85.2672 24.0381 85.3963 23.7509 85.653 23.5221C85.9096 23.2932 86.2677 23.178 86.7272 23.178H89.4396C89.9114 23.178 90.2772 23.2932 90.5338 23.5221C90.7904 23.7509 90.9195 24.0258 90.9195 24.3453C90.9195 24.6647 90.7904 24.9227 90.5338 25.1592C90.2756 25.3957 89.9114 25.514 89.4396 25.514Z" fill="white"/>
<defs>
<linearGradient id="paint0_linear_2530_26266" x1="105.642" y1="28.5317" x2="123.351" y2="19.1094" gradientUnits="userSpaceOnUse">
<stop stop-color="#00A7DD"/>
<stop offset="0.07" stop-color="#26A1D6"/>
<stop offset="0.21" stop-color="#8691C4"/>
<stop offset="0.35" stop-color="#ED82B2"/>
<stop offset="0.58" stop-color="#ED9779"/>
<stop offset="0.68" stop-color="#EC9675"/>
<stop offset="0.77" stop-color="#E9936A"/>
<stop offset="0.85" stop-color="#E58F58"/>
<stop offset="0.93" stop-color="#DE883F"/>
<stop offset="1" stop-color="#D88223"/>
</linearGradient>
<linearGradient id="paint1_linear_2530_26266" x1="112.019" y1="4.59029" x2="126.747" y2="13.7997" gradientUnits="userSpaceOnUse">
<stop stop-color="#859CC9"/>
<stop offset="0.4" stop-color="#EE943D"/>
<stop offset="0.71" stop-color="#EC923A"/>
<stop offset="0.86" stop-color="#E58D33"/>
<stop offset="0.98" stop-color="#DA8426"/>
<stop offset="1" stop-color="#D88223"/>
</linearGradient>
<linearGradient id="paint2_linear_2530_26266" x1="138.947" y1="4.70075" x2="124.218" y2="13.9102" gradientUnits="userSpaceOnUse">
<stop stop-color="#859CC9"/>
<stop offset="0.4" stop-color="#EE943D"/>
<stop offset="0.71" stop-color="#EC923A"/>
<stop offset="0.86" stop-color="#E58D33"/>
<stop offset="0.98" stop-color="#DA8426"/>
<stop offset="1" stop-color="#D88223"/>
</linearGradient>
<linearGradient id="paint3_linear_2530_26266" x1="145.227" y1="28.5317" x2="127.518" y2="19.1094" gradientUnits="userSpaceOnUse">
<stop stop-color="#00A7DD"/>
<stop offset="0.07" stop-color="#26A1D6"/>
<stop offset="0.21" stop-color="#8691C4"/>
<stop offset="0.35" stop-color="#ED82B2"/>
<stop offset="0.58" stop-color="#ED9779"/>
<stop offset="0.68" stop-color="#EC9675"/>
<stop offset="0.77" stop-color="#E9936A"/>
<stop offset="0.85" stop-color="#E58F58"/>
<stop offset="0.93" stop-color="#DE883F"/>
<stop offset="1" stop-color="#D88223"/>
</linearGradient>
</defs>
</svg>
